<svg width="100" height="100" viewBox="0 0 100 100" fill="none" xmlns="http://www.w3.org/2000/svg">
<path d="M70.8705 32.2545H65.6361C64.4978 32.2545 63.4152 32.8014 62.7455 33.7389L45.2009 58.0692L37.2545 47.0425C36.5848 46.1161 35.5134 45.5581 34.3638 45.5581H29.1295C28.404 45.5581 27.9799 46.384 28.404 46.9755L42.3103 66.2612C42.6388 66.7197 43.0718 67.0933 43.5736 67.3511C44.0753 67.6088 44.6312 67.7433 45.1953 67.7433C45.7594 67.7433 46.3153 67.6088 46.817 67.3511C47.3188 67.0933 47.7518 66.7197 48.0803 66.2612L71.5848 33.6719C72.0201 33.0804 71.596 32.2545 70.8705 32.2545V32.2545Z" fill="#F0F0F0"/>
<path d="M50 0C22.3884 0 0 22.3884 0 50C0 77.6116 22.3884 100 50 100C77.6116 100 100 77.6116 100 50C100 22.3884 77.6116 0 50 0ZM50 91.5179C27.0759 91.5179 8.48214 72.9241 8.48214 50C8.48214 27.0759 27.0759 8.48214 50 8.48214C72.9241 8.48214 91.5179 27.0759 91.5179 50C91.5179 72.9241 72.9241 91.5179 50 91.5179Z" fill="#F0F0F0"/>
</svg>
