<svg width="302" height="310" viewBox="0 0 302 310" fill="none" xmlns="http://www.w3.org/2000/svg">
<path d="M126.661 201.081C115.337 201.081 100.658 192.703 100.658 181.392V117.297H21.3898C10.0658 117.297 0 122.324 0 133.635V286.542C0 297.853 10.0658 310 21.3898 310H174.473C185.797 310 192.927 297.853 192.927 286.542V201.081H126.661Z" fill="#E9E9E9"/>
<path d="M92.2696 89.6486C92.2696 95.5136 88.0755 100.541 82.6231 100.541H9.64637C4.19406 100.541 0 95.9325 0 89.6486V10.8919C0 4.60811 4.19406 0 9.64637 0H82.6231C88.0755 0 92.2696 4.60811 92.2696 10.8919V89.6486Z" fill="#E9E9E9"/>
<path d="M301.973 299.108C301.973 304.972 297.78 310 292.326 310H219.35C213.898 310 209.703 305.392 209.703 299.108V220.351C209.703 214.486 213.898 209.459 219.35 209.459H292.326C297.78 209.459 301.973 214.068 301.973 220.351V299.108Z" fill="#E9E9E9"/>
<path d="M301.973 172.176C301.973 183.486 292.746 192.703 281.423 192.703H129.597C118.273 192.703 109.046 183.486 109.046 172.176V20.527C109.046 9.21622 118.273 0 129.597 0H281.423C292.746 0 301.973 9.21622 301.973 20.527V172.176Z" fill="#E9E9E9"/>
</svg>
