<svg width="479" height="447" viewBox="0 0 479 447" fill="none" xmlns="http://www.w3.org/2000/svg">
<path d="M138.643 434.084L134.543 423.4H122.322L118.104 434.084H117L128.117 405.857H129.103L139.747 434.084H138.643ZM129.812 410.667C129.655 410.22 129.471 409.721 129.26 409.169C129.05 408.591 128.814 407.934 128.551 407.198C128.367 407.776 128.157 408.38 127.92 409.011C127.684 409.616 127.46 410.181 127.25 410.706L122.677 422.415H134.149L129.812 410.667ZM169.438 419.734C169.438 424.439 168.229 428.013 165.811 430.457C163.42 432.875 159.753 434.084 154.812 434.084H148.741V405.936H155.719C160.371 405.936 163.814 407.119 166.048 409.484C168.308 411.85 169.438 415.266 169.438 419.734ZM168.374 419.774C168.374 415.595 167.336 412.415 165.259 410.233C163.209 408.026 159.898 406.922 155.325 406.922H149.766V433.098H154.931C163.893 433.098 168.374 428.657 168.374 419.774ZM198.714 405.936L188.11 434.084H187.124L176.519 405.936H177.623L186.138 428.447C186.427 429.182 186.703 429.918 186.966 430.654C187.229 431.364 187.452 432.021 187.636 432.625C187.847 432.021 188.057 431.403 188.267 430.772C188.504 430.115 188.793 429.34 189.135 428.447L197.61 405.936H198.714ZM230.478 419.971C230.478 422.809 230.018 425.319 229.098 427.5C228.204 429.682 226.838 431.39 224.998 432.625C223.184 433.861 220.885 434.478 218.099 434.478C215.366 434.478 213.079 433.861 211.239 432.625C209.426 431.364 208.059 429.642 207.139 427.461C206.219 425.28 205.76 422.77 205.76 419.931C205.76 417.093 206.246 414.596 207.218 412.441C208.191 410.259 209.61 408.564 211.476 407.355C213.368 406.12 215.655 405.502 218.335 405.502C222.225 405.502 225.221 406.777 227.324 409.326C229.426 411.85 230.478 415.398 230.478 419.971ZM206.824 419.931C206.824 422.559 207.231 424.898 208.046 426.948C208.861 428.972 210.109 430.575 211.791 431.758C213.473 432.914 215.589 433.493 218.138 433.493C220.714 433.493 222.83 432.928 224.485 431.797C226.167 430.641 227.403 429.051 228.191 427.027C229.006 424.977 229.413 422.625 229.413 419.971C229.413 415.687 228.454 412.375 226.535 410.036C224.617 407.671 221.883 406.488 218.335 406.488C215.76 406.488 213.618 407.066 211.909 408.223C210.201 409.379 208.926 410.969 208.085 412.993C207.244 415.016 206.824 417.329 206.824 419.931ZM253.891 406.527C251.263 406.527 249.016 407.106 247.15 408.262C245.31 409.418 243.904 411.008 242.932 413.032C241.959 415.03 241.473 417.316 241.473 419.892C241.473 422.599 241.907 424.977 242.774 427.027C243.641 429.077 244.942 430.667 246.677 431.797C248.411 432.928 250.566 433.493 253.142 433.493C254.666 433.493 256.02 433.388 257.203 433.177C258.385 432.967 259.45 432.691 260.396 432.349V433.256C259.529 433.598 258.49 433.887 257.281 434.123C256.072 434.36 254.693 434.478 253.142 434.478C250.356 434.478 248.017 433.874 246.125 432.665C244.233 431.43 242.8 429.721 241.828 427.54C240.882 425.358 240.408 422.809 240.408 419.892C240.408 417.158 240.947 414.714 242.025 412.559C243.102 410.378 244.64 408.669 246.637 407.434C248.661 406.173 251.079 405.542 253.891 405.542C256.44 405.542 258.78 406.028 260.908 407.001L260.514 407.986C259.384 407.382 258.267 406.987 257.163 406.803C256.059 406.619 254.969 406.527 253.891 406.527ZM288.712 434.084L284.612 423.4H272.391L268.172 434.084H267.068L278.186 405.857H279.171L289.815 434.084H288.712ZM279.881 410.667C279.723 410.22 279.539 409.721 279.329 409.169C279.119 408.591 278.882 407.934 278.619 407.198C278.435 407.776 278.225 408.38 277.989 409.011C277.752 409.616 277.529 410.181 277.318 410.706L272.745 422.415H284.217L279.881 410.667ZM309.945 406.527C307.317 406.527 305.07 407.106 303.204 408.262C301.364 409.418 299.958 411.008 298.986 413.032C298.013 415.03 297.527 417.316 297.527 419.892C297.527 422.599 297.961 424.977 298.828 427.027C299.695 429.077 300.996 430.667 302.731 431.797C304.466 432.928 306.621 433.493 309.196 433.493C310.721 433.493 312.074 433.388 313.257 433.177C314.44 432.967 315.504 432.691 316.45 432.349V433.256C315.583 433.598 314.545 433.887 313.336 434.123C312.127 434.36 310.747 434.478 309.196 434.478C306.41 434.478 304.071 433.874 302.179 432.665C300.287 431.43 298.854 429.721 297.882 427.54C296.936 425.358 296.463 422.809 296.463 419.892C296.463 417.158 297.002 414.714 298.079 412.559C299.157 410.378 300.694 408.669 302.692 407.434C304.715 406.173 307.133 405.542 309.945 405.542C312.495 405.542 314.834 406.028 316.963 407.001L316.568 407.986C315.438 407.382 314.321 406.987 313.217 406.803C312.114 406.619 311.023 406.527 309.945 406.527ZM331.914 434.084H325.528V433.296L328.208 433.177V406.882L325.528 406.725V405.936H331.914V406.725L329.233 406.882V433.177L331.914 433.296V434.084ZM360.858 434.084L356.758 423.4H344.537L340.319 434.084H339.215L350.333 405.857H351.318L361.962 434.084H360.858ZM352.028 410.667C351.87 410.22 351.686 409.721 351.476 409.169C351.266 408.591 351.029 407.934 350.766 407.198C350.582 407.776 350.372 408.38 350.135 409.011C349.899 409.616 349.675 410.181 349.465 410.706L344.892 422.415H356.364L352.028 410.667Z" fill="#FAFBFF"/>
<path d="M24.8078 325.355C21.2053 325.355 18.1146 326.173 15.5356 327.811C12.9565 329.407 10.9711 331.659 9.57924 334.566C8.22832 337.431 7.55286 340.767 7.55286 344.575C7.55286 348.505 8.16692 351.943 9.39503 354.891C10.6231 357.797 12.4653 360.049 14.9215 361.645C17.4187 363.242 20.5094 364.04 24.1937 364.04C26.3224 364.04 28.2669 363.876 30.0272 363.549C31.8285 363.221 33.5273 362.792 35.1239 362.259V365.391C33.6092 365.964 31.9513 366.414 30.15 366.742C28.3488 367.069 26.2406 367.233 23.8253 367.233C19.4041 367.233 15.6993 366.292 12.7109 364.409C9.76346 362.525 7.5324 359.885 6.01773 356.487C4.544 353.089 3.80713 349.119 3.80713 344.575C3.80713 340.235 4.62587 336.387 6.26335 333.03C7.94176 329.633 10.3366 326.972 13.4478 325.048C16.5999 323.124 20.4071 322.162 24.8692 322.162C29.1266 322.162 32.9542 322.96 36.352 324.556L34.9397 327.688C31.7875 326.133 28.4102 325.355 24.8078 325.355ZM70.9875 350.224C70.9875 353.663 70.4144 356.651 69.2682 359.189C68.1629 361.727 66.5049 363.713 64.2943 365.145C62.1247 366.537 59.4638 367.233 56.3116 367.233C53.2823 367.233 50.6828 366.537 48.5131 365.145C46.3435 363.754 44.6651 361.789 43.4779 359.25C42.3317 356.671 41.7585 353.663 41.7585 350.224C41.7585 344.943 43.0685 340.808 45.6885 337.82C48.3085 334.832 51.9314 333.337 56.5572 333.337C59.6685 333.337 62.2884 334.054 64.4171 335.487C66.5868 336.878 68.2243 338.843 69.3296 341.382C70.4349 343.92 70.9875 346.867 70.9875 350.224ZM45.3815 350.224C45.3815 354.44 46.2616 357.838 48.0219 360.417C49.8231 362.955 52.6068 364.224 56.373 364.224C60.1802 364.224 62.9639 362.935 64.7242 360.356C66.4845 357.777 67.3646 354.399 67.3646 350.224C67.3646 347.522 66.9962 345.127 66.2593 343.039C65.5224 340.952 64.3557 339.314 62.7592 338.127C61.1627 336.94 59.0749 336.346 56.4958 336.346C52.8115 336.346 50.0278 337.574 48.1447 340.031C46.3025 342.487 45.3815 345.885 45.3815 350.224ZM93.3295 333.399C94.926 333.399 96.3998 333.563 97.7507 333.89L97.198 337.145C95.888 336.776 94.5371 336.592 93.1453 336.592C90.1569 336.592 87.7825 337.697 86.0222 339.908C84.262 342.118 83.3818 345.045 83.3818 348.689V366.619H79.8817V333.951H82.8292L83.1976 340.031H83.3818C84.2005 338.188 85.4491 336.633 87.1275 335.364C88.806 334.054 90.8733 333.399 93.3295 333.399ZM115.928 367.233C111.138 367.233 107.434 365.759 104.814 362.812C102.235 359.865 100.945 355.75 100.945 350.47C100.945 346.785 101.6 343.674 102.91 341.136C104.22 338.598 106.042 336.674 108.375 335.364C110.75 334.013 113.513 333.337 116.665 333.337C118.221 333.337 119.694 333.481 121.086 333.767C122.478 334.054 123.706 334.443 124.77 334.934L123.788 337.943C122.683 337.493 121.496 337.145 120.226 336.899C118.957 336.612 117.75 336.469 116.604 336.469C112.715 336.469 109.726 337.718 107.638 340.215C105.592 342.712 104.568 346.11 104.568 350.408C104.568 354.502 105.489 357.818 107.331 360.356C109.174 362.853 112.039 364.102 115.928 364.102C117.525 364.102 119.039 363.938 120.472 363.61C121.905 363.283 123.194 362.873 124.341 362.382V365.514C123.276 366.046 122.048 366.455 120.656 366.742C119.305 367.069 117.729 367.233 115.928 367.233ZM144.456 333.337C147.24 333.337 149.553 333.992 151.395 335.302C153.278 336.571 154.69 338.332 155.632 340.583C156.614 342.835 157.106 345.414 157.106 348.32V350.715H133.772C133.772 355.054 134.775 358.391 136.781 360.724C138.827 363.017 141.734 364.163 145.5 364.163C147.506 364.163 149.266 363.999 150.781 363.672C152.296 363.303 153.954 362.73 155.755 361.952V365.145C154.117 365.882 152.5 366.414 150.904 366.742C149.307 367.069 147.465 367.233 145.377 367.233C140.465 367.233 136.699 365.739 134.079 362.751C131.459 359.762 130.149 355.689 130.149 350.531C130.149 347.215 130.701 344.268 131.807 341.689C132.953 339.11 134.59 337.083 136.719 335.609C138.848 334.095 141.427 333.337 144.456 333.337ZM144.395 336.285C141.406 336.285 138.971 337.288 137.088 339.294C135.245 341.3 134.181 344.145 133.894 347.829H153.483C153.483 344.39 152.725 341.607 151.211 339.478C149.737 337.349 147.465 336.285 144.395 336.285ZM175.144 364.224C176.045 364.224 176.904 364.163 177.723 364.04C178.542 363.917 179.258 363.733 179.872 363.487V366.312C179.258 366.558 178.501 366.762 177.6 366.926C176.7 367.131 175.738 367.233 174.714 367.233C171.971 367.233 169.863 366.476 168.389 364.961C166.916 363.447 166.179 360.97 166.179 357.531V336.776H161.328V334.811L166.179 333.644L167.407 326.153H169.679V333.951H179.688V336.776H169.679V357.347C169.679 361.932 171.501 364.224 175.144 364.224ZM196.012 364.224C196.913 364.224 197.773 364.163 198.591 364.04C199.41 363.917 200.126 363.733 200.74 363.487V366.312C200.126 366.558 199.369 366.762 198.468 366.926C197.568 367.131 196.606 367.233 195.582 367.233C192.84 367.233 190.731 366.476 189.258 364.961C187.784 363.447 187.047 360.97 187.047 357.531V336.776H182.196V334.811L187.047 333.644L188.275 326.153H190.547V333.951H200.556V336.776H190.547V357.347C190.547 361.932 192.369 364.224 196.012 364.224ZM209.45 321.855C211.047 321.855 211.845 322.735 211.845 324.495C211.845 326.296 211.047 327.197 209.45 327.197C207.854 327.197 207.056 326.296 207.056 324.495C207.056 322.735 207.854 321.855 209.45 321.855ZM211.17 333.951V366.619H207.67V333.951H211.17ZM251.216 322.1C254.246 322.1 256.681 322.919 258.523 324.556C260.407 326.153 261.348 328.384 261.348 331.25C261.348 333.951 260.447 336.203 258.646 338.004C256.845 339.765 254.532 341.402 251.707 342.917L265.094 356.18C266.24 354.829 267.223 353.253 268.041 351.452C268.86 349.651 269.515 347.686 270.006 345.557H273.568C272.299 350.756 270.231 355.075 267.366 358.514L275.471 366.619H270.743L265.032 360.786C263.108 362.71 260.959 364.265 258.585 365.452C256.21 366.64 253.263 367.233 249.742 367.233C245.649 367.233 242.353 366.21 239.856 364.163C237.359 362.116 236.11 359.189 236.11 355.382C236.11 353.212 236.52 351.37 237.339 349.855C238.157 348.3 239.344 346.949 240.9 345.803C242.456 344.616 244.318 343.449 246.488 342.303C244.728 340.501 243.295 338.802 242.19 337.206C241.084 335.568 240.532 333.644 240.532 331.434C240.532 328.568 241.494 326.296 243.418 324.618C245.383 322.939 247.982 322.1 251.216 322.1ZM251.155 325.048C248.944 325.048 247.184 325.621 245.874 326.767C244.605 327.913 243.97 329.469 243.97 331.434C243.97 333.112 244.441 334.647 245.383 336.039C246.324 337.431 247.675 339.007 249.435 340.767C252.178 339.417 254.266 338.025 255.699 336.592C257.132 335.118 257.848 333.337 257.848 331.25C257.848 329.367 257.234 327.872 256.006 326.767C254.778 325.621 253.161 325.048 251.155 325.048ZM248.637 344.575C246.754 345.557 245.137 346.54 243.786 347.522C242.476 348.464 241.473 349.548 240.777 350.777C240.122 352.005 239.795 353.519 239.795 355.321C239.795 358.063 240.695 360.213 242.497 361.768C244.339 363.283 246.775 364.04 249.804 364.04C252.792 364.04 255.289 363.549 257.295 362.566C259.342 361.543 261.164 360.213 262.76 358.575L248.637 344.575ZM317.691 366.619L301.972 326.521H301.787C301.828 327.668 301.869 328.978 301.91 330.451C301.992 331.884 302.033 333.399 302.033 334.995V366.619H298.656V322.776H304.059L319.165 361.154H319.349L334.639 322.776H339.92V366.619H336.359V334.627C336.359 333.276 336.379 331.905 336.42 330.513C336.502 329.08 336.563 327.77 336.604 326.583H336.42L320.577 366.619H317.691ZM363.013 333.399C366.697 333.399 369.44 334.299 371.241 336.101C373.042 337.902 373.943 340.747 373.943 344.636V366.619H371.303L370.689 361.093H370.504C369.317 362.935 367.864 364.429 366.145 365.575C364.466 366.681 362.112 367.233 359.083 367.233C355.931 367.233 353.454 366.455 351.653 364.9C349.852 363.303 348.951 361.031 348.951 358.084C348.951 354.809 350.281 352.332 352.942 350.654C355.603 348.934 359.472 347.972 364.548 347.768L370.504 347.461V345.189C370.504 341.996 369.849 339.724 368.539 338.373C367.27 337.022 365.387 336.346 362.89 336.346C361.212 336.346 359.595 336.571 358.039 337.022C356.483 337.472 354.928 338.066 353.372 338.802L352.267 335.978C353.823 335.241 355.501 334.627 357.302 334.136C359.144 333.644 361.048 333.399 363.013 333.399ZM364.978 350.347C360.802 350.551 357.691 351.288 355.644 352.557C353.638 353.785 352.635 355.628 352.635 358.084C352.635 360.131 353.249 361.686 354.478 362.751C355.747 363.774 357.486 364.286 359.697 364.286C363.095 364.286 365.735 363.324 367.618 361.4C369.501 359.435 370.463 356.733 370.504 353.294V350.101L364.978 350.347ZM397.838 333.399C399.434 333.399 400.908 333.563 402.259 333.89L401.706 337.145C400.396 336.776 399.045 336.592 397.654 336.592C394.665 336.592 392.291 337.697 390.531 339.908C388.77 342.118 387.89 345.045 387.89 348.689V366.619H384.39V333.951H387.338L387.706 340.031H387.89C388.709 338.188 389.957 336.633 391.636 335.364C393.314 334.054 395.382 333.399 397.838 333.399ZM420.436 367.233C415.647 367.233 411.942 365.759 409.322 362.812C406.743 359.865 405.454 355.75 405.454 350.47C405.454 346.785 406.109 343.674 407.419 341.136C408.729 338.598 410.55 336.674 412.884 335.364C415.258 334.013 418.021 333.337 421.173 333.337C422.729 333.337 424.203 333.481 425.595 333.767C426.986 334.054 428.215 334.443 429.279 334.934L428.296 337.943C427.191 337.493 426.004 337.145 424.735 336.899C423.466 336.612 422.258 336.469 421.112 336.469C417.223 336.469 414.235 337.718 412.147 340.215C410.1 342.712 409.076 346.11 409.076 350.408C409.076 354.502 409.998 357.818 411.84 360.356C413.682 362.853 416.547 364.102 420.436 364.102C422.033 364.102 423.548 363.938 424.98 363.61C426.413 363.283 427.703 362.873 428.849 362.382V365.514C427.785 366.046 426.557 366.455 425.165 366.742C423.814 367.069 422.238 367.233 420.436 367.233ZM424.673 375.339C424.673 377.222 423.957 378.696 422.524 379.76C421.132 380.824 419.188 381.356 416.691 381.356C415.299 381.356 414.194 381.234 413.375 380.988V378.593C414.194 378.798 415.319 378.9 416.752 378.9C418.267 378.9 419.474 378.614 420.375 378.041C421.276 377.508 421.726 376.628 421.726 375.4C421.726 374.254 421.194 373.394 420.129 372.821C419.106 372.289 417.653 371.961 415.77 371.839L418.472 366.619H420.989L419.208 370.242C420.805 370.447 422.115 370.958 423.138 371.777C424.162 372.637 424.673 373.824 424.673 375.339ZM448.105 333.399C451.789 333.399 454.532 334.299 456.333 336.101C458.134 337.902 459.035 340.747 459.035 344.636V366.619H456.395L455.781 361.093H455.596C454.409 362.935 452.956 364.429 451.237 365.575C449.558 366.681 447.204 367.233 444.175 367.233C441.023 367.233 438.546 366.455 436.745 364.9C434.944 363.303 434.043 361.031 434.043 358.084C434.043 354.809 435.374 352.332 438.034 350.654C440.695 348.934 444.564 347.972 449.64 347.768L455.596 347.461V345.189C455.596 341.996 454.941 339.724 453.631 338.373C452.362 337.022 450.479 336.346 447.982 336.346C446.304 336.346 444.687 336.571 443.131 337.022C441.575 337.472 440.02 338.066 438.464 338.802L437.359 335.978C438.915 335.241 440.593 334.627 442.394 334.136C444.236 333.644 446.14 333.399 448.105 333.399ZM450.07 350.347C445.894 350.551 442.783 351.288 440.736 352.557C438.73 353.785 437.727 355.628 437.727 358.084C437.727 360.131 438.341 361.686 439.57 362.751C440.839 363.774 442.578 364.286 444.789 364.286C448.187 364.286 450.827 363.324 452.71 361.4C454.593 359.435 455.555 356.733 455.596 353.294V350.101L450.07 350.347ZM472.982 366.619H469.482V319.951H472.982V366.619Z" fill="#FAFBFF"/>
<path d="M235.52 5.42432C237.774 2.42855 241.429 2.42855 243.683 5.42432L254.972 20.4298C257.226 23.4255 257.226 28.2826 254.972 31.2784L243.683 46.2838C241.429 49.2796 237.774 49.2796 235.52 46.2838L224.231 31.2784C221.977 28.2826 221.977 23.4255 224.231 20.4298L235.52 5.42432Z" fill="#FAFBFF"/>
<path d="M203.464 204.412C205.671 204.412 207.46 202.391 207.46 199.899C207.46 197.406 205.671 195.386 203.464 195.386C201.258 195.386 199.469 197.406 199.469 199.899C199.469 202.391 201.258 204.412 203.464 204.412Z" fill="#FAFBFF"/>
<path d="M213.759 207.764C213.375 204.81 212.719 201.908 211.801 199.108C211.011 196.619 210.087 194.187 209.036 191.824C208.956 191.651 208.823 191.517 208.661 191.447C208.499 191.377 208.321 191.376 208.159 191.444C207.997 191.512 207.862 191.645 207.78 191.817C207.698 191.989 207.675 192.189 207.714 192.379C208.262 194.849 208.68 197.354 208.964 199.88C209.285 202.543 209.358 205.237 209.184 207.917C209.1 209.143 208.895 210.354 208.573 211.528C208.333 212.475 207.909 213.349 207.33 214.087C206.306 215.232 204.923 215.874 203.482 215.874C202.041 215.874 200.659 215.232 199.634 214.087C199.056 213.349 198.631 212.475 198.392 211.528C198.069 210.354 197.864 209.143 197.78 207.917C197.606 205.237 197.68 202.543 198 199.88C198.28 197.353 198.692 194.847 199.235 192.375C199.267 192.275 199.281 192.17 199.277 192.064C199.273 191.959 199.251 191.855 199.211 191.76C199.172 191.664 199.116 191.578 199.047 191.506C198.978 191.435 198.897 191.38 198.809 191.343C198.721 191.307 198.628 191.291 198.535 191.296C198.441 191.3 198.349 191.326 198.265 191.37C198.093 191.46 197.961 191.624 197.896 191.824C196.847 194.188 195.925 196.622 195.135 199.113C194.217 201.913 193.561 204.814 193.177 207.769C192.979 209.363 192.933 210.978 193.042 212.584C193.157 214.443 193.613 216.255 194.38 217.905C194.83 218.838 195.399 219.691 196.07 220.436C197.037 221.541 198.189 222.417 199.459 223.013C200.729 223.609 202.091 223.913 203.466 223.907C208.029 223.907 210.175 221.199 210.862 220.436C211.536 219.692 212.108 218.839 212.561 217.905C213.325 216.254 213.778 214.442 213.891 212.584C214.001 210.977 213.957 209.361 213.759 207.764Z" fill="#FAFBFF"/>
<path d="M276.347 204.412C278.554 204.412 280.343 202.391 280.343 199.899C280.343 197.406 278.554 195.386 276.347 195.386C274.14 195.386 272.352 197.406 272.352 199.899C272.352 202.391 274.14 204.412 276.347 204.412Z" fill="#FAFBFF"/>
<path d="M286.631 207.764C286.247 204.81 285.591 201.909 284.673 199.108C283.883 196.62 282.961 194.187 281.912 191.824C281.831 191.651 281.698 191.517 281.536 191.447C281.375 191.377 281.196 191.376 281.034 191.444C280.872 191.513 280.737 191.645 280.655 191.817C280.574 191.989 280.55 192.189 280.589 192.379C281.132 194.851 281.545 197.357 281.824 199.884C282.144 202.548 282.218 205.242 282.044 207.922C281.96 209.148 281.755 210.359 281.432 211.532C281.193 212.48 280.768 213.354 280.19 214.091C279.165 215.236 277.783 215.878 276.342 215.878C274.901 215.878 273.518 215.236 272.494 214.091C271.915 213.354 271.491 212.48 271.251 211.532C270.929 210.359 270.724 209.148 270.64 207.922C270.466 205.242 270.539 202.548 270.86 199.884C271.139 197.356 271.551 194.848 272.094 192.375C272.133 192.185 272.11 191.985 272.028 191.813C271.946 191.64 271.811 191.508 271.649 191.44C271.487 191.372 271.309 191.373 271.147 191.443C270.986 191.513 270.852 191.647 270.772 191.82C269.722 194.184 268.8 196.618 268.011 199.108C267.093 201.909 266.437 204.81 266.053 207.764C265.854 209.362 265.808 210.98 265.917 212.588C266.033 214.446 266.489 216.256 267.256 217.905C267.705 218.838 268.275 219.692 268.946 220.437C269.912 221.541 271.064 222.417 272.334 223.013C273.604 223.609 274.967 223.913 276.342 223.907C280.905 223.907 283.05 221.199 283.738 220.437C284.409 219.692 284.978 218.838 285.428 217.905C286.195 216.255 286.651 214.443 286.766 212.584C286.875 210.977 286.829 209.361 286.631 207.764Z" fill="#FAFBFF"/>
<path d="M280.579 175.984C280.579 175.952 280.579 175.921 280.579 175.893V174.039C280.58 173.225 280.397 172.425 280.048 171.714C279.698 171.004 279.193 170.405 278.581 169.977C278.461 169.896 278.338 169.819 278.214 169.747C277.57 169.393 276.856 169.229 276.141 169.272C275.426 169.315 274.732 169.562 274.124 169.99C273.517 170.419 273.015 171.015 272.668 171.722C272.32 172.43 272.137 173.225 272.136 174.034V176.119C271.475 175.886 270.829 175.596 270.206 175.253C269.384 174.81 268.591 174.302 267.833 173.732C266.298 172.568 264.89 171.205 263.637 169.67L263.174 169.088L262.694 168.47C262.327 168.018 261.963 167.522 261.572 167.071C260.795 166.143 259.976 165.262 259.118 164.43C257.338 162.723 255.393 161.247 253.321 160.03C250.122 158.103 246.557 157.085 242.932 157.065C242.932 156.551 242.932 156.041 242.952 155.531C243.001 154.914 243.088 154.302 243.211 153.699C243.439 152.476 243.783 151.253 244.126 150.03C244.493 148.833 244.776 147.606 244.974 146.361C245.113 145.137 245.349 143.914 244.866 142.691C244.744 142.378 244.6 142.076 244.434 141.789C244.267 141.458 244.062 141.155 243.823 140.886C243.461 140.525 243.058 140.221 242.624 139.984C241.973 139.677 242.069 139.374 239.883 139.081C237.693 139.388 237.789 139.69 237.138 139.984C236.704 140.221 236.301 140.525 235.939 140.886C235.702 141.156 235.496 141.459 235.328 141.789C235.162 142.076 235.018 142.378 234.896 142.691C234.413 143.914 234.649 145.137 234.789 146.361C234.986 147.606 235.269 148.833 235.636 150.03C235.979 151.253 236.323 152.476 236.551 153.699C236.674 154.302 236.761 154.914 236.81 155.531C236.842 156.041 236.834 156.551 236.81 157.065C233.186 157.088 229.62 158.105 226.422 160.03C224.381 161.255 222.467 162.732 220.716 164.435C219.858 165.266 219.039 166.147 218.262 167.075C217.863 167.526 217.507 168.005 217.14 168.474L216.66 169.092L216.189 169.675C214.939 171.214 213.531 172.577 211.993 173.736C211.239 174.308 210.448 174.816 209.628 175.257C209.002 175.599 208.354 175.887 207.69 176.119V174.039C207.688 173.231 207.505 172.437 207.158 171.73C206.811 171.024 206.31 170.429 205.704 170.001C205.097 169.572 204.405 169.325 203.691 169.281C202.976 169.238 202.264 169.399 201.62 169.751C201.488 169.824 201.373 169.9 201.253 169.981C200.641 170.41 200.136 171.008 199.786 171.719C199.437 172.43 199.254 173.23 199.255 174.043V175.893C199.255 175.921 199.255 175.952 199.255 175.984C199.217 176.359 199.217 176.737 199.255 177.112C199.276 177.932 199.484 178.733 199.86 179.435C200.236 180.137 200.767 180.718 201.401 181.12C201.675 181.327 201.969 181.5 202.276 181.639C203.009 181.967 203.785 182.156 204.573 182.198C205.851 182.257 207.13 182.105 208.369 181.747C210.603 181.09 212.744 180.082 214.73 178.755C216.668 177.474 218.486 175.976 220.156 174.282L220.772 173.637L221.079 173.308L221.231 173.145L221.355 173.01C221.707 172.658 222.042 172.288 222.398 171.958C223.092 171.282 223.816 170.646 224.568 170.054C225.306 169.482 226.073 168.959 226.865 168.488C227.645 168.037 228.456 167.658 229.29 167.355C230.905 166.775 232.578 166.424 234.269 166.312C235.007 166.258 235.758 166.24 236.523 166.258C236.418 166.966 236.279 167.666 236.107 168.357C235.666 169.628 235.131 170.855 234.509 172.026C234.228 172.613 233.992 173.226 233.802 173.858C233.629 174.453 233.524 175.07 233.49 175.695C233.433 176.951 233.63 178.206 234.065 179.364C234.501 180.587 235.096 181.81 235.472 183.033C235.845 184.206 235.945 185.468 235.763 186.698C235.61 187.938 235.378 189.164 235.068 190.367C234.738 191.612 234.348 192.837 233.901 194.036C233.454 195.259 232.95 196.482 232.471 197.705C228.311 207.489 229.091 217.273 228.172 227.039C227.919 229.513 227.519 231.965 226.973 234.377C226.413 236.877 225.697 239.329 224.831 241.715C223.911 244.257 222.81 246.709 221.539 249.049C220.884 250.272 220.14 251.495 219.341 252.718C218.493 254.023 217.563 255.258 216.56 256.414H263.246C262.248 255.266 261.322 254.04 260.477 252.745C259.678 251.522 258.934 250.299 258.279 249.076C257.008 246.736 255.907 244.284 254.987 241.742C253.29 237.044 252.165 232.107 251.642 227.066C250.723 217.287 251.502 207.502 247.343 197.732C246.863 196.509 246.36 195.286 245.913 194.063C245.465 192.864 245.076 191.64 244.746 190.394C244.436 189.191 244.204 187.965 244.051 186.725C243.869 185.495 243.969 184.233 244.342 183.06C244.718 181.837 245.313 180.614 245.749 179.391C246.184 178.233 246.381 176.978 246.324 175.722C246.29 175.097 246.185 174.48 246.012 173.885C245.822 173.253 245.586 172.64 245.305 172.053C244.69 170.873 244.164 169.636 243.731 168.357C243.553 167.662 243.409 166.957 243.299 166.245C244.063 166.245 244.814 166.245 245.557 166.299C247.245 166.416 248.913 166.771 250.524 167.355C251.348 167.661 252.149 168.04 252.921 168.488C253.715 168.955 254.482 169.478 255.218 170.054C255.979 170.646 256.71 171.285 257.408 171.967C257.764 172.297 258.099 172.667 258.443 173.019L258.575 173.154L258.727 173.317L259.026 173.646L259.642 174.291C261.316 175.987 263.138 177.487 265.08 178.768C267.063 180.096 269.202 181.103 271.433 181.76C272.675 182.118 273.956 182.271 275.237 182.212C276.029 182.171 276.809 181.982 277.546 181.652C277.85 181.512 278.14 181.338 278.413 181.133C279.048 180.732 279.58 180.152 279.958 179.45C280.335 178.747 280.545 177.947 280.567 177.126C280.602 176.746 280.606 176.364 280.579 175.984Z" fill="#FAFBFF"/>
<path fill-rule="evenodd" clip-rule="evenodd" d="M347.474 69.75C329.049 74.5781 312.604 86.1832 303.481 100.249C302.024 102.496 302.664 105.499 304.911 106.956C307.158 108.413 310.16 107.773 311.617 105.526C319.298 93.6845 333.608 83.4083 349.932 79.1306C366.141 74.883 383.898 76.6457 398.883 88.1632C406.003 93.635 410.203 98.9642 412.425 104.112C414.625 109.209 415.034 114.473 414.003 120.118C411.877 131.772 403.748 144.6 392.949 159.472C390.6 162.707 388.135 166.026 385.61 169.425C376.794 181.296 367.25 194.146 359.392 207.806C349.229 225.473 341.551 245.015 341.551 266.607C341.551 269.285 343.722 271.456 346.4 271.456C349.078 271.456 351.249 269.285 351.249 266.607C351.249 247.359 358.085 229.525 367.797 212.641C375.344 199.524 384.425 187.294 393.188 175.491C395.767 172.018 398.319 168.581 400.796 165.17C411.441 150.509 420.964 135.995 423.543 121.859C424.866 114.611 424.392 107.369 421.328 100.269C418.286 93.2199 412.842 86.6611 404.793 80.4744C386.999 66.7984 366.013 64.8916 347.474 69.75Z" fill="#FAFBFF"/>
<path fill-rule="evenodd" clip-rule="evenodd" d="M131.765 69.749C150.189 74.5771 166.634 86.1822 175.757 100.248C177.214 102.495 176.574 105.498 174.327 106.955C172.081 108.412 169.078 107.772 167.621 105.525C159.941 93.6835 145.63 83.4073 129.306 79.1296C113.098 74.8821 95.3404 76.6448 80.3551 88.1622C73.2357 93.6341 69.0352 98.9632 66.8136 104.111C64.6137 109.208 64.2045 114.472 65.2348 120.117C67.3615 131.771 75.4906 144.599 86.2894 159.471C88.6382 162.706 91.1033 166.025 93.6279 169.424C102.445 181.295 111.989 194.145 119.847 207.805C130.01 225.472 137.687 245.014 137.687 266.606C137.687 269.284 135.516 271.455 132.838 271.455C130.161 271.455 127.99 269.284 127.99 266.606C127.99 247.358 121.153 229.524 111.441 212.64C103.895 199.523 94.8137 187.293 86.0505 175.49C83.4712 172.017 80.9194 168.58 78.4425 165.169C67.7973 150.508 58.2746 135.994 55.695 121.858C54.3722 114.61 54.8462 107.368 57.9101 100.268C60.9523 93.2189 66.3961 86.6601 74.4457 80.4734C92.2395 66.7974 113.225 64.8906 131.765 69.749Z" fill="#FAFBFF"/>
<path fill-rule="evenodd" clip-rule="evenodd" d="M209.524 52.9107C216.994 57.4776 225.125 65.5391 233.847 77.0194C235.183 78.7786 234.945 81.2607 233.328 82.7669L233.136 82.9458C231.223 84.7292 228.183 84.4335 226.586 82.3613C218.53 71.9038 211.446 65.1126 205.437 61.439C198.765 57.3601 194.011 57.4293 190.544 59.5493C186.826 61.8228 183.292 67.2043 180.716 76.913C178.173 86.5005 176.777 99.5424 176.777 115.86C176.777 122.688 176.635 129.855 176.49 137.126C176.481 137.613 176.471 138.1 176.461 138.587C176.307 146.381 176.161 154.295 176.186 162.166C176.238 177.946 176.985 193.292 179.662 206.733C182.339 220.177 186.866 231.291 194.19 239.046C200.72 245.96 205.599 251.628 242.877 251.628C245.282 251.783 247.239 253.718 247.239 256.128L227.266 256.912C227.266 259.322 225.308 261.291 222.902 261.152C207.963 260.292 196.662 254.954 188.318 246.121C179.271 236.541 174.169 223.341 171.285 208.861C168.401 194.378 167.653 178.191 167.601 162.202C167.574 154.188 167.724 146.157 167.878 138.37C167.887 137.892 167.897 137.415 167.906 136.939C168.051 129.638 168.192 122.574 168.192 115.86C168.192 99.0343 169.619 84.9589 172.492 74.1299C175.332 63.4221 179.806 55.0881 186.457 51.0214C193.359 46.801 201.336 47.9051 209.524 52.9107Z" fill="#FAFBFF"/>
<path fill-rule="evenodd" clip-rule="evenodd" d="M263.013 58.6339C255.155 66.6496 246.743 78.3901 238.046 93.3573C236.928 95.2804 237.466 97.7333 239.27 99.035L239.384 99.1177C241.493 100.64 244.454 99.9884 245.768 97.7447C254.037 83.6276 261.801 72.9377 268.768 65.8306C276.591 57.8505 282.6 55.2033 286.753 55.7639C290.449 56.2627 294.454 59.6559 297.632 69.6256C300.788 79.5227 302.662 94.6741 302.662 115.805C302.662 122.635 302.804 129.804 302.948 137.079C302.958 137.565 302.967 138.052 302.977 138.54C303.131 146.337 303.277 154.254 303.251 162.128C303.2 177.915 302.455 193.269 299.788 206.717C297.119 220.17 292.607 231.289 285.31 239.046C278.808 245.957 273.501 251.628 244.211 251.628C241.806 251.783 240.037 253.531 240.037 255.941V256.911C240.037 259.321 254.326 261.29 256.732 261.15C271.617 260.286 282.88 254.945 291.194 246.108C300.21 236.524 305.293 223.319 308.166 208.837C311.04 194.35 311.785 178.159 311.837 162.164C311.863 154.148 311.714 146.114 311.561 138.324C311.551 137.846 311.542 137.368 311.532 136.892C311.388 129.588 311.248 122.521 311.248 115.805C311.248 94.2422 309.36 77.7869 305.71 66.3402C302.084 54.9661 296.243 47.2784 287.772 46.135C279.757 45.0533 271.278 50.2028 263.013 58.6339Z" fill="#FAFBFF"/>
<path fill-rule="evenodd" clip-rule="evenodd" d="M128.08 267.578C128.616 270.202 131.177 271.894 133.801 271.358C193.46 259.165 268.786 256.712 344.841 271.368C347.47 271.875 350.012 270.154 350.519 267.525C351.026 264.895 349.305 262.353 346.676 261.846C269.335 246.942 192.726 249.417 131.859 261.857C129.236 262.393 127.543 264.955 128.08 267.578Z" fill="#FAFBFF"/>
</svg>
