<svg width="451" height="337" viewBox="0 0 451 337" fill="none" xmlns="http://www.w3.org/2000/svg">
<path d="M7.55272 313.96H8.96872L16.0487 331H14.2727L12.0647 325.672H4.40872L2.22472 331H0.424719L7.55272 313.96ZM11.6807 324.352L8.24872 315.928L4.76872 324.352H11.6807ZM25.6915 331V313.96H31.4755C33.2835 313.96 34.7875 314.344 35.9875 315.112C37.2035 315.864 38.1155 316.888 38.7235 318.184C39.3315 319.464 39.6355 320.888 39.6355 322.456C39.6355 324.184 39.2995 325.688 38.6275 326.968C37.9555 328.248 37.0115 329.24 35.7955 329.944C34.5795 330.648 33.1395 331 31.4755 331H25.6915ZM37.9555 322.456C37.9555 321.096 37.6995 319.888 37.1875 318.832C36.6915 317.776 35.9555 316.952 34.9795 316.36C34.0195 315.752 32.8515 315.448 31.4755 315.448H27.3715V329.512H31.4755C32.8835 329.512 34.0675 329.2 35.0275 328.576C35.9875 327.952 36.7155 327.112 37.2115 326.056C37.7075 325 37.9555 323.8 37.9555 322.456ZM49.3663 313.96L55.4623 328.912L61.5343 313.96H63.2863L56.2303 331H54.6943L47.6143 313.96H49.3663ZM79.1352 331.12C77.9352 331.12 76.8472 330.88 75.8712 330.4C74.8952 329.904 74.0552 329.248 73.3512 328.432C72.6472 327.616 72.1032 326.696 71.7192 325.672C71.3352 324.632 71.1432 323.568 71.1432 322.48C71.1432 321.344 71.3432 320.264 71.7432 319.24C72.1432 318.2 72.7032 317.28 73.4232 316.48C74.1592 315.664 75.0152 315.024 75.9912 314.56C76.9672 314.08 78.0232 313.84 79.1592 313.84C80.3432 313.84 81.4232 314.088 82.3992 314.584C83.3752 315.08 84.2152 315.744 84.9192 316.576C85.6392 317.408 86.1832 318.336 86.5512 319.36C86.9352 320.384 87.1272 321.432 87.1272 322.504C87.1272 323.64 86.9272 324.728 86.5272 325.768C86.1272 326.792 85.5672 327.712 84.8472 328.528C84.1272 329.328 83.2792 329.96 82.3032 330.424C81.3272 330.888 80.2712 331.12 79.1352 331.12ZM72.8232 322.48C72.8232 323.408 72.9752 324.296 73.2792 325.144C73.5832 325.992 74.0152 326.752 74.5752 327.424C75.1352 328.096 75.7992 328.632 76.5672 329.032C77.3512 329.416 78.2072 329.608 79.1352 329.608C80.1112 329.608 80.9832 329.408 81.7512 329.008C82.5352 328.592 83.1992 328.04 83.7432 327.352C84.3032 326.664 84.7272 325.904 85.0152 325.072C85.3032 324.224 85.4472 323.36 85.4472 322.48C85.4472 321.552 85.2952 320.664 84.9912 319.816C84.6872 318.968 84.2472 318.208 83.6712 317.536C83.1112 316.864 82.4472 316.336 81.6792 315.952C80.9112 315.568 80.0632 315.376 79.1352 315.376C78.1752 315.376 77.3032 315.576 76.5192 315.976C75.7512 316.376 75.0872 316.92 74.5272 317.608C73.9832 318.28 73.5592 319.04 73.2552 319.888C72.9672 320.736 72.8232 321.6 72.8232 322.48ZM104.335 331.12C103.183 331.12 102.119 330.88 101.143 330.4C100.183 329.904 99.3426 329.24 98.6226 328.408C97.9026 327.576 97.3426 326.648 96.9426 325.624C96.5586 324.584 96.3666 323.528 96.3666 322.456C96.3666 321.32 96.5586 320.24 96.9426 319.216C97.3426 318.176 97.8946 317.256 98.5986 316.456C99.3026 315.64 100.135 315 101.095 314.536C102.055 314.072 103.103 313.84 104.239 313.84C105.919 313.84 107.287 314.184 108.343 314.872C109.399 315.56 110.199 316.456 110.743 317.56L109.447 318.424C108.903 317.368 108.175 316.592 107.263 316.096C106.351 315.6 105.335 315.352 104.215 315.352C103.271 315.352 102.415 315.552 101.647 315.952C100.895 316.352 100.247 316.888 99.7026 317.56C99.1746 318.232 98.7666 318.992 98.4786 319.84C98.1906 320.688 98.0466 321.568 98.0466 322.48C98.0466 323.44 98.2066 324.352 98.5266 325.216C98.8466 326.064 99.2946 326.824 99.8706 327.496C100.463 328.152 101.143 328.672 101.911 329.056C102.695 329.424 103.543 329.608 104.455 329.608C105.431 329.608 106.359 329.376 107.239 328.912C108.135 328.448 108.991 327.728 109.807 326.752V323.92H106.015V322.624H111.223V331H109.807V328.504C108.239 330.248 106.415 331.12 104.335 331.12ZM127.154 313.96H128.57L135.65 331H133.874L131.666 325.672H124.01L121.826 331H120.026L127.154 313.96ZM131.282 324.352L127.85 315.928L124.37 324.352H131.282ZM145.293 331V313.96H151.077C152.885 313.96 154.389 314.344 155.589 315.112C156.805 315.864 157.717 316.888 158.325 318.184C158.933 319.464 159.237 320.888 159.237 322.456C159.237 324.184 158.901 325.688 158.229 326.968C157.557 328.248 156.613 329.24 155.397 329.944C154.181 330.648 152.741 331 151.077 331H145.293ZM157.557 322.456C157.557 321.096 157.301 319.888 156.789 318.832C156.293 317.776 155.557 316.952 154.581 316.36C153.621 315.752 152.453 315.448 151.077 315.448H146.973V329.512H151.077C152.485 329.512 153.669 329.2 154.629 328.576C155.589 327.952 156.317 327.112 156.813 326.056C157.309 325 157.557 323.8 157.557 322.456ZM176.513 331.12C175.313 331.12 174.225 330.88 173.249 330.4C172.273 329.904 171.433 329.248 170.729 328.432C170.025 327.616 169.481 326.696 169.097 325.672C168.713 324.632 168.521 323.568 168.521 322.48C168.521 321.344 168.721 320.264 169.121 319.24C169.521 318.2 170.081 317.28 170.801 316.48C171.537 315.664 172.393 315.024 173.369 314.56C174.345 314.08 175.401 313.84 176.537 313.84C177.721 313.84 178.801 314.088 179.777 314.584C180.753 315.08 181.593 315.744 182.297 316.576C183.017 317.408 183.561 318.336 183.929 319.36C184.313 320.384 184.505 321.432 184.505 322.504C184.505 323.64 184.305 324.728 183.905 325.768C183.505 326.792 182.945 327.712 182.225 328.528C181.505 329.328 180.657 329.96 179.681 330.424C178.705 330.888 177.649 331.12 176.513 331.12ZM170.201 322.48C170.201 323.408 170.353 324.296 170.657 325.144C170.961 325.992 171.393 326.752 171.953 327.424C172.513 328.096 173.177 328.632 173.945 329.032C174.729 329.416 175.585 329.608 176.513 329.608C177.489 329.608 178.361 329.408 179.129 329.008C179.913 328.592 180.577 328.04 181.121 327.352C181.681 326.664 182.105 325.904 182.393 325.072C182.681 324.224 182.825 323.36 182.825 322.48C182.825 321.552 182.673 320.664 182.369 319.816C182.065 318.968 181.625 318.208 181.049 317.536C180.489 316.864 179.825 316.336 179.057 315.952C178.289 315.568 177.441 315.376 176.513 315.376C175.553 315.376 174.681 315.576 173.897 315.976C173.129 316.376 172.465 316.92 171.905 317.608C171.361 318.28 170.937 319.04 170.633 319.888C170.345 320.736 170.201 321.6 170.201 322.48ZM204.833 317.152C204.353 316.624 203.713 316.192 202.913 315.856C202.113 315.504 201.201 315.328 200.177 315.328C198.673 315.328 197.577 315.616 196.889 316.192C196.201 316.752 195.857 317.52 195.857 318.496C195.857 319.168 196.025 319.696 196.361 320.08C196.697 320.464 197.209 320.784 197.897 321.04C198.601 321.28 199.497 321.52 200.585 321.76C201.801 322.016 202.849 322.32 203.729 322.672C204.609 323.024 205.289 323.504 205.769 324.112C206.249 324.704 206.489 325.512 206.489 326.536C206.489 327.576 206.225 328.44 205.697 329.128C205.169 329.816 204.441 330.328 203.513 330.664C202.585 330.984 201.529 331.144 200.345 331.144C197.689 331.144 195.409 330.32 193.505 328.672L194.345 327.304C194.953 327.944 195.785 328.496 196.841 328.96C197.913 329.424 199.097 329.656 200.393 329.656C201.737 329.656 202.793 329.408 203.561 328.912C204.329 328.416 204.713 327.68 204.713 326.704C204.713 326 204.521 325.44 204.137 325.024C203.753 324.592 203.177 324.24 202.409 323.968C201.641 323.696 200.697 323.432 199.577 323.176C198.393 322.904 197.393 322.6 196.577 322.264C195.777 321.928 195.169 321.488 194.753 320.944C194.337 320.4 194.129 319.664 194.129 318.736C194.129 317.68 194.385 316.792 194.897 316.072C195.425 315.336 196.145 314.784 197.057 314.416C197.969 314.032 199.017 313.84 200.201 313.84C201.321 313.84 202.329 314.016 203.225 314.368C204.121 314.704 204.929 315.184 205.649 315.808L204.833 317.152ZM239.298 313.96H240.714L247.794 331H246.018L243.81 325.672H236.154L233.97 331H232.17L239.298 313.96ZM243.426 324.352L239.994 315.928L236.514 324.352H243.426ZM269.797 317.152C269.317 316.624 268.677 316.192 267.877 315.856C267.077 315.504 266.165 315.328 265.141 315.328C263.637 315.328 262.541 315.616 261.853 316.192C261.165 316.752 260.821 317.52 260.821 318.496C260.821 319.168 260.989 319.696 261.325 320.08C261.661 320.464 262.173 320.784 262.861 321.04C263.565 321.28 264.461 321.52 265.549 321.76C266.765 322.016 267.813 322.32 268.693 322.672C269.573 323.024 270.253 323.504 270.733 324.112C271.213 324.704 271.453 325.512 271.453 326.536C271.453 327.576 271.189 328.44 270.661 329.128C270.133 329.816 269.405 330.328 268.477 330.664C267.549 330.984 266.493 331.144 265.309 331.144C262.653 331.144 260.373 330.32 258.469 328.672L259.309 327.304C259.917 327.944 260.749 328.496 261.805 328.96C262.877 329.424 264.061 329.656 265.357 329.656C266.701 329.656 267.757 329.408 268.525 328.912C269.293 328.416 269.677 327.68 269.677 326.704C269.677 326 269.485 325.44 269.101 325.024C268.717 324.592 268.141 324.24 267.373 323.968C266.605 323.696 265.661 323.432 264.541 323.176C263.357 322.904 262.357 322.6 261.541 322.264C260.741 321.928 260.133 321.488 259.717 320.944C259.301 320.4 259.093 319.664 259.093 318.736C259.093 317.68 259.349 316.792 259.861 316.072C260.389 315.336 261.109 314.784 262.021 314.416C262.933 314.032 263.981 313.84 265.165 313.84C266.285 313.84 267.293 314.016 268.189 314.368C269.085 314.704 269.893 315.184 270.613 315.808L269.797 317.152ZM291.575 317.152C291.095 316.624 290.455 316.192 289.655 315.856C288.855 315.504 287.943 315.328 286.919 315.328C285.415 315.328 284.319 315.616 283.631 316.192C282.943 316.752 282.599 317.52 282.599 318.496C282.599 319.168 282.767 319.696 283.103 320.08C283.439 320.464 283.951 320.784 284.639 321.04C285.343 321.28 286.239 321.52 287.327 321.76C288.543 322.016 289.591 322.32 290.471 322.672C291.351 323.024 292.031 323.504 292.511 324.112C292.991 324.704 293.231 325.512 293.231 326.536C293.231 327.576 292.967 328.44 292.439 329.128C291.911 329.816 291.183 330.328 290.255 330.664C289.327 330.984 288.271 331.144 287.087 331.144C284.431 331.144 282.151 330.32 280.247 328.672L281.087 327.304C281.695 327.944 282.527 328.496 283.583 328.96C284.655 329.424 285.839 329.656 287.135 329.656C288.479 329.656 289.535 329.408 290.303 328.912C291.071 328.416 291.455 327.68 291.455 326.704C291.455 326 291.263 325.44 290.879 325.024C290.495 324.592 289.919 324.24 289.151 323.968C288.383 323.696 287.439 323.432 286.319 323.176C285.135 322.904 284.135 322.6 283.319 322.264C282.519 321.928 281.911 321.488 281.495 320.944C281.079 320.4 280.871 319.664 280.871 318.736C280.871 317.68 281.127 316.792 281.639 316.072C282.167 315.336 282.887 314.784 283.799 314.416C284.711 314.032 285.759 313.84 286.943 313.84C288.063 313.84 289.071 314.016 289.967 314.368C290.863 314.704 291.671 315.184 292.391 315.808L291.575 317.152ZM310.257 331.12C309.057 331.12 307.969 330.88 306.993 330.4C306.017 329.904 305.177 329.248 304.473 328.432C303.769 327.616 303.225 326.696 302.841 325.672C302.457 324.632 302.265 323.568 302.265 322.48C302.265 321.344 302.465 320.264 302.865 319.24C303.265 318.2 303.825 317.28 304.545 316.48C305.281 315.664 306.137 315.024 307.113 314.56C308.089 314.08 309.145 313.84 310.281 313.84C311.465 313.84 312.545 314.088 313.521 314.584C314.497 315.08 315.337 315.744 316.041 316.576C316.761 317.408 317.305 318.336 317.673 319.36C318.057 320.384 318.249 321.432 318.249 322.504C318.249 323.64 318.049 324.728 317.649 325.768C317.249 326.792 316.689 327.712 315.969 328.528C315.249 329.328 314.401 329.96 313.425 330.424C312.449 330.888 311.393 331.12 310.257 331.12ZM303.945 322.48C303.945 323.408 304.097 324.296 304.401 325.144C304.705 325.992 305.137 326.752 305.697 327.424C306.257 328.096 306.921 328.632 307.689 329.032C308.473 329.416 309.329 329.608 310.257 329.608C311.233 329.608 312.105 329.408 312.873 329.008C313.657 328.592 314.321 328.04 314.865 327.352C315.425 326.664 315.849 325.904 316.137 325.072C316.425 324.224 316.569 323.36 316.569 322.48C316.569 321.552 316.417 320.664 316.113 319.816C315.809 318.968 315.369 318.208 314.793 317.536C314.233 316.864 313.569 316.336 312.801 315.952C312.033 315.568 311.185 315.376 310.257 315.376C309.297 315.376 308.425 315.576 307.641 315.976C306.873 316.376 306.209 316.92 305.649 317.608C305.105 318.28 304.681 319.04 304.377 319.888C304.089 320.736 303.945 321.6 303.945 322.48ZM327.488 322.36C327.488 321.336 327.664 320.32 328.016 319.312C328.384 318.304 328.912 317.392 329.6 316.576C330.288 315.744 331.136 315.088 332.144 314.608C333.152 314.112 334.296 313.864 335.576 313.864C337.08 313.864 338.376 314.216 339.464 314.92C340.552 315.608 341.352 316.496 341.864 317.584L340.544 318.4C340.176 317.648 339.712 317.056 339.152 316.624C338.592 316.176 337.992 315.856 337.352 315.664C336.728 315.472 336.104 315.376 335.48 315.376C334.456 315.376 333.552 315.584 332.768 316C331.984 316.4 331.32 316.944 330.776 317.632C330.248 318.32 329.848 319.08 329.576 319.912C329.304 320.744 329.168 321.592 329.168 322.456C329.168 323.4 329.328 324.304 329.648 325.168C329.968 326.016 330.416 326.776 330.992 327.448C331.568 328.12 332.24 328.656 333.008 329.056C333.792 329.44 334.64 329.632 335.552 329.632C336.192 329.632 336.848 329.52 337.52 329.296C338.192 329.072 338.816 328.728 339.392 328.264C339.968 327.8 340.44 327.2 340.808 326.464L342.2 327.184C341.832 328.032 341.28 328.752 340.544 329.344C339.824 329.936 339.008 330.384 338.096 330.688C337.2 330.992 336.32 331.144 335.456 331.144C334.288 331.144 333.216 330.896 332.24 330.4C331.264 329.888 330.416 329.216 329.696 328.384C328.992 327.536 328.448 326.592 328.064 325.552C327.68 324.496 327.488 323.432 327.488 322.36ZM352.27 331V313.96H353.95V331H352.27ZM370.703 313.96H372.119L379.199 331H377.423L375.215 325.672H367.559L365.375 331H363.575L370.703 313.96ZM374.831 324.352L371.399 315.928L367.919 324.352H374.831ZM388.841 331V313.96H394.625C396.433 313.96 397.937 314.344 399.137 315.112C400.353 315.864 401.265 316.888 401.873 318.184C402.481 319.464 402.785 320.888 402.785 322.456C402.785 324.184 402.449 325.688 401.777 326.968C401.105 328.248 400.161 329.24 398.945 329.944C397.729 330.648 396.289 331 394.625 331H388.841ZM401.105 322.456C401.105 321.096 400.849 319.888 400.337 318.832C399.841 317.776 399.105 316.952 398.129 316.36C397.169 315.752 396.001 315.448 394.625 315.448H390.521V329.512H394.625C396.033 329.512 397.217 329.2 398.177 328.576C399.137 327.952 399.865 327.112 400.361 326.056C400.857 325 401.105 323.8 401.105 322.456ZM420.062 331.12C418.862 331.12 417.774 330.88 416.798 330.4C415.822 329.904 414.982 329.248 414.278 328.432C413.574 327.616 413.03 326.696 412.646 325.672C412.262 324.632 412.07 323.568 412.07 322.48C412.07 321.344 412.27 320.264 412.67 319.24C413.07 318.2 413.63 317.28 414.35 316.48C415.086 315.664 415.942 315.024 416.918 314.56C417.894 314.08 418.95 313.84 420.086 313.84C421.27 313.84 422.35 314.088 423.326 314.584C424.302 315.08 425.142 315.744 425.846 316.576C426.566 317.408 427.11 318.336 427.478 319.36C427.862 320.384 428.054 321.432 428.054 322.504C428.054 323.64 427.854 324.728 427.454 325.768C427.054 326.792 426.494 327.712 425.774 328.528C425.054 329.328 424.206 329.96 423.23 330.424C422.254 330.888 421.198 331.12 420.062 331.12ZM413.75 322.48C413.75 323.408 413.902 324.296 414.206 325.144C414.51 325.992 414.942 326.752 415.502 327.424C416.062 328.096 416.726 328.632 417.494 329.032C418.278 329.416 419.134 329.608 420.062 329.608C421.038 329.608 421.91 329.408 422.678 329.008C423.462 328.592 424.126 328.04 424.67 327.352C425.23 326.664 425.654 325.904 425.942 325.072C426.23 324.224 426.374 323.36 426.374 322.48C426.374 321.552 426.222 320.664 425.918 319.816C425.614 318.968 425.174 318.208 424.598 317.536C424.038 316.864 423.374 316.336 422.606 315.952C421.838 315.568 420.99 315.376 420.062 315.376C419.102 315.376 418.23 315.576 417.446 315.976C416.678 316.376 416.014 316.92 415.454 317.608C414.91 318.28 414.486 319.04 414.182 319.888C413.894 320.736 413.75 321.6 413.75 322.48ZM448.381 317.152C447.901 316.624 447.261 316.192 446.461 315.856C445.661 315.504 444.749 315.328 443.725 315.328C442.221 315.328 441.125 315.616 440.437 316.192C439.749 316.752 439.405 317.52 439.405 318.496C439.405 319.168 439.573 319.696 439.909 320.08C440.245 320.464 440.757 320.784 441.445 321.04C442.149 321.28 443.045 321.52 444.133 321.76C445.349 322.016 446.397 322.32 447.277 322.672C448.157 323.024 448.837 323.504 449.317 324.112C449.797 324.704 450.037 325.512 450.037 326.536C450.037 327.576 449.773 328.44 449.245 329.128C448.717 329.816 447.989 330.328 447.061 330.664C446.133 330.984 445.077 331.144 443.893 331.144C441.237 331.144 438.957 330.32 437.053 328.672L437.893 327.304C438.501 327.944 439.333 328.496 440.389 328.96C441.461 329.424 442.645 329.656 443.941 329.656C445.285 329.656 446.341 329.408 447.109 328.912C447.877 328.416 448.261 327.68 448.261 326.704C448.261 326 448.069 325.44 447.685 325.024C447.301 324.592 446.725 324.24 445.957 323.968C445.189 323.696 444.245 323.432 443.125 323.176C441.941 322.904 440.941 322.6 440.125 322.264C439.325 321.928 438.717 321.488 438.301 320.944C437.885 320.4 437.677 319.664 437.677 318.736C437.677 317.68 437.933 316.792 438.445 316.072C438.973 315.336 439.693 314.784 440.605 314.416C441.517 314.032 442.565 313.84 443.749 313.84C444.869 313.84 445.877 314.016 446.773 314.368C447.669 314.704 448.477 315.184 449.197 315.808L448.381 317.152Z" fill="#E4E4E4"/>
<path d="M21.0593 285V259.44H30.3473C33.1313 259.44 35.4593 260.016 37.3313 261.168C39.2033 262.296 40.6073 263.832 41.5433 265.776C42.4793 267.696 42.9473 269.832 42.9473 272.184C42.9473 274.776 42.4313 277.032 41.3993 278.952C40.3673 280.872 38.9033 282.36 37.0073 283.416C35.1113 284.472 32.8913 285 30.3473 285H21.0593ZM37.9433 272.184C37.9433 270.528 37.6433 269.076 37.0433 267.828C36.4433 266.556 35.5793 265.572 34.4513 264.876C33.3233 264.156 31.9553 263.796 30.3473 263.796H26.0273V280.644H30.3473C31.9793 280.644 33.3593 280.284 34.4873 279.564C35.6153 278.82 36.4673 277.812 37.0433 276.54C37.6433 275.244 37.9433 273.792 37.9433 272.184ZM63.5925 259.44H68.6325L78.0285 285H72.9165L70.5405 278.628H61.6125L59.2725 285H54.1605L63.5925 259.44ZM69.6405 275.136L66.1125 264.588L62.4405 275.136H69.6405ZM96.6 268.584V285H91.632V259.44H95.592L108.804 276.288V259.476H113.772V285H109.632L96.6 268.584ZM129.889 285V259.44H134.857V285H129.889ZM168.738 280.644V285H150.99V259.44H168.414V263.796H155.958V269.952H166.722V273.984H155.958V280.644H168.738ZM183.411 285V259.44H188.379V280.644H201.411V285H183.411ZM254.437 285V268.224L247.885 280.716H245.113L238.561 268.224V285H233.593V259.44H238.921L246.481 273.984L254.113 259.44H259.405V285H254.437ZM282.489 259.44H287.529L296.925 285H291.813L289.437 278.628H280.509L278.169 285H273.057L282.489 259.44ZM288.537 275.136L285.009 264.588L281.337 275.136H288.537ZM310.529 285V259.44H321.833C323.009 259.44 324.089 259.68 325.073 260.16C326.081 260.64 326.945 261.288 327.665 262.104C328.409 262.92 328.973 263.832 329.357 264.84C329.765 265.848 329.969 266.88 329.969 267.936C329.969 269.568 329.549 271.068 328.709 272.436C327.893 273.804 326.777 274.788 325.361 275.388L331.193 285H325.721L320.465 276.432H315.497V285H310.529ZM315.497 272.076H321.725C322.661 272.076 323.429 271.68 324.029 270.888C324.653 270.072 324.965 269.088 324.965 267.936C324.965 267.144 324.797 266.436 324.461 265.812C324.125 265.188 323.693 264.696 323.165 264.336C322.661 263.976 322.109 263.796 321.509 263.796H315.497V272.076ZM343.582 272.04C343.582 270.48 343.858 268.944 344.41 267.432C344.986 265.92 345.814 264.552 346.894 263.328C347.974 262.104 349.294 261.132 350.854 260.412C352.414 259.668 354.19 259.296 356.182 259.296C358.51 259.296 360.538 259.812 362.266 260.844C363.994 261.876 365.278 263.22 366.118 264.876L362.302 267.504C361.87 266.544 361.306 265.788 360.61 265.236C359.914 264.684 359.158 264.288 358.342 264.048C357.55 263.808 356.782 263.688 356.038 263.688C354.79 263.688 353.698 263.94 352.762 264.444C351.85 264.948 351.082 265.608 350.458 266.424C349.834 267.24 349.366 268.152 349.054 269.16C348.766 270.168 348.622 271.176 348.622 272.184C348.622 273.696 348.934 275.112 349.558 276.432C350.182 277.728 351.058 278.784 352.186 279.6C353.314 280.416 354.622 280.824 356.11 280.824C356.878 280.824 357.67 280.692 358.486 280.428C359.326 280.164 360.094 279.744 360.79 279.168C361.486 278.592 362.026 277.848 362.41 276.936L366.478 279.276C365.95 280.548 365.122 281.628 363.994 282.516C362.866 283.38 361.594 284.052 360.178 284.532C358.762 284.988 357.358 285.216 355.966 285.216C354.142 285.216 352.474 284.844 350.962 284.1C349.474 283.332 348.178 282.324 347.074 281.076C345.97 279.804 345.106 278.388 344.482 276.828C343.882 275.244 343.582 273.648 343.582 272.04ZM355.498 292.236C354.85 292.236 354.154 292.14 353.41 291.948C352.666 291.78 351.922 291.516 351.178 291.156L352.402 288.6C352.762 288.84 353.122 289.02 353.482 289.14C353.866 289.284 354.262 289.356 354.67 289.356C355.27 289.356 355.75 289.212 356.11 288.924C356.47 288.66 356.65 288.264 356.65 287.736C356.65 287.232 356.47 286.752 356.11 286.296C355.774 285.864 355.282 285.432 354.634 285L356.254 283.956C357.19 284.604 357.97 285.288 358.594 286.008C359.242 286.728 359.566 287.616 359.566 288.672C359.566 289.68 359.218 290.52 358.522 291.192C357.85 291.888 356.842 292.236 355.498 292.236ZM387.206 259.44H392.246L401.642 285H396.53L394.154 278.628H385.226L382.886 285H377.774L387.206 259.44ZM393.254 275.136L389.726 264.588L386.054 275.136H393.254ZM415.245 285V259.44H420.213V280.644H433.245V285H415.245Z" fill="white"/>
<path d="M140.645 100.751H268.07C270.124 100.751 271.983 101.807 273.012 103.611C274.037 105.39 274.037 107.531 273.012 109.31L210.601 217.498C209.297 219.75 206.965 221.112 204.356 221.112C201.746 221.112 199.414 219.778 198.11 217.498L135.703 109.282C134.674 107.503 134.674 105.362 135.703 103.583C136.756 101.807 138.591 100.751 140.645 100.751ZM269.595 107.336C270.068 106.53 269.762 105.835 269.595 105.557C269.429 105.279 268.984 104.667 268.07 104.667H140.672C139.755 104.667 139.282 105.279 139.143 105.557C138.977 105.835 138.671 106.53 139.143 107.336L201.523 215.552C202.107 216.581 203.163 217.193 204.356 217.193C205.551 217.193 206.604 216.581 207.188 215.552L269.595 107.336Z" fill="#FBD160"/>
<path d="M251.474 0C163.538 0 91.9478 71.6737 91.9478 159.711C91.9478 160.342 92.4975 160.891 93.1276 160.891H409.82C410.45 160.891 411 160.342 411 159.711C411 71.6737 339.41 0 251.474 0ZM94.3044 158.532C94.9345 72.3038 165.187 2.36287 251.474 2.36287C337.76 2.36287 408.013 72.3038 408.643 158.532H94.3044Z" fill="#FAFBFF"/>
<path d="M46.7134 100.751H174.138C176.192 100.751 178.052 101.807 179.08 103.611C180.106 105.39 180.106 107.531 179.08 109.31L116.673 217.498C115.366 219.75 113.034 221.112 110.424 221.112C107.814 221.112 105.482 219.778 104.179 217.498L41.7714 109.282C40.7429 107.503 40.7429 105.362 41.7714 103.583C42.8247 101.807 44.6594 100.751 46.7134 100.751ZM175.664 107.336C176.137 106.53 175.831 105.835 175.664 105.557C175.498 105.279 175.053 104.667 174.138 104.667H46.7412C45.8238 104.667 45.3512 105.279 45.2122 105.557C45.0455 105.835 44.7428 106.53 45.2122 107.336L107.592 215.552C108.176 216.581 109.232 217.193 110.424 217.193C111.62 217.193 112.673 216.581 113.257 215.552L175.664 107.336Z" fill="#FBD160"/>
</svg>
