<svg width="106" height="80" viewBox="0 0 106 80" fill="none" xmlns="http://www.w3.org/2000/svg">
<path d="M99.375 0H6.625C4.86794 0 3.18285 0.702379 1.94042 1.95262C0.697989 3.20286 0 4.89856 0 6.66667V73.3333C0 75.1014 0.697989 76.7971 1.94042 78.0474C3.18285 79.2976 4.86794 80 6.625 80H99.375C101.132 80 102.817 79.2976 104.06 78.0474C105.302 76.7971 106 75.1014 106 73.3333V6.66667C106 4.89856 105.302 3.20286 104.06 1.95262C102.817 0.702379 101.132 0 99.375 0ZM94.2738 73.3333H12.1237L35.3112 49.2L30.5413 44.5667L6.625 69.4667V11.7333L47.7994 52.9667C49.0407 54.2083 50.7198 54.9053 52.47 54.9053C54.2202 54.9053 55.8993 54.2083 57.1406 52.9667L99.375 10.7V69.0333L74.995 44.5L70.3244 49.2L94.2738 73.3333ZM10.9644 6.66667H94.0088L52.47 48.2333L10.9644 6.66667Z" fill="black"/>
</svg>
