<svg width="100" height="100" viewBox="0 0 100 100" fill="none" xmlns="http://www.w3.org/2000/svg">
<path fill-rule="evenodd" clip-rule="evenodd" d="M55.2316 10.16C53.694 4.94093 46.306 4.94093 44.7684 10.16L44.1809 12.1539C43.6868 13.8287 42.8243 15.3717 41.6565 16.6699C40.4888 17.9682 39.0455 18.9888 37.4323 19.657C35.819 20.3251 34.0768 20.624 32.3331 20.5316C30.5894 20.4392 28.8884 19.958 27.3548 19.1231L25.5297 18.123C20.7544 15.5291 15.5291 20.7482 18.1293 25.5297L19.1231 27.3548C19.958 28.8884 20.4392 30.5894 20.5316 32.3331C20.624 34.0768 20.3251 35.819 19.657 37.4323C18.9888 39.0455 17.9682 40.4888 16.6699 41.6565C15.3717 42.8243 13.8287 43.6868 12.1539 44.1809L10.16 44.7684C4.94093 46.306 4.94093 53.694 10.16 55.2316L12.1539 55.8191C13.8295 56.313 15.3734 57.1757 16.6723 58.3438C17.9712 59.512 18.9922 60.956 19.6605 62.57C20.3287 64.1841 20.6273 65.9272 20.5343 67.6716C20.4414 69.4161 19.9591 71.1176 19.1231 72.6514L18.123 74.4703C15.5291 79.2456 20.7482 84.4709 25.5297 81.8707L27.3548 80.8769C28.8888 80.0421 30.5902 79.5611 32.3342 79.4691C34.0783 79.3771 35.8208 79.6765 37.4341 80.3453C39.0474 81.0142 40.4907 82.0355 41.6581 83.3344C42.8255 84.6334 43.6875 86.1771 44.1809 87.8524L44.7684 89.84C46.306 95.0591 53.694 95.0591 55.2316 89.84L55.8191 87.8461C56.313 86.1705 57.1757 84.6266 58.3438 83.3277C59.512 82.0288 60.956 81.0078 62.57 80.3395C64.1841 79.6713 65.9272 79.3727 67.6716 79.4657C69.4161 79.5587 71.1176 80.0409 72.6514 80.8769L74.4703 81.877C79.2456 84.4709 84.4709 79.2518 81.8707 74.4703L80.8769 72.6514C80.0409 71.1172 79.559 69.4152 79.4664 67.6705C79.3738 65.9257 79.6729 64.1823 80.3418 62.5682C81.0107 60.9541 82.0324 59.5101 83.332 58.3423C84.6317 57.1744 86.1762 56.3123 87.8524 55.8191L89.84 55.2316C95.0591 53.694 95.0591 46.306 89.84 44.7684L87.8461 44.1809C86.1714 43.6868 84.6283 42.8243 83.3301 41.6565C82.0318 40.4888 81.0112 39.0455 80.3431 37.4323C79.6749 35.819 79.376 34.0768 79.4684 32.3331C79.5608 30.5894 80.042 28.8884 80.8769 27.3548L81.877 25.5297C84.4709 20.7544 79.2518 15.5291 74.4703 18.1293L72.6514 19.1231C71.1173 19.9603 69.4153 20.4435 67.6701 20.5371C65.9249 20.6307 64.1809 20.3324 62.5661 19.664C60.9512 18.9956 59.5065 17.9742 58.3379 16.6747C57.1693 15.3751 56.3066 13.8304 55.8129 12.1539L55.2253 10.16H55.2316ZM38.7743 8.39115C42.0683 -2.79705 57.9317 -2.79705 61.2257 8.39115L61.8132 10.385C62.0433 11.166 62.4452 11.8856 62.9895 12.4911C63.5338 13.0966 64.2066 13.5727 64.9588 13.8843C65.711 14.196 66.5233 14.3354 67.3364 14.2923C68.1494 14.2492 68.9425 14.0247 69.6575 13.6352L71.4826 12.6352C81.7332 7.05982 92.9464 18.2668 87.3586 28.5174L86.3648 30.3425C85.9753 31.0575 85.7509 31.8506 85.7078 32.6636C85.6646 33.4767 85.804 34.289 86.1157 35.0412C86.4273 35.7934 86.9034 36.4663 87.5089 37.0105C88.1144 37.5548 88.834 37.9567 89.615 38.1868L91.6089 38.7743C102.797 42.0683 102.797 57.9317 91.6089 61.2257L89.615 61.8132C88.834 62.0433 88.1144 62.4452 87.5089 62.9895C86.9034 63.5338 86.4273 64.2066 86.1157 64.9588C85.804 65.711 85.6646 66.5233 85.7078 67.3364C85.7509 68.1494 85.9753 68.9425 86.3648 69.6575L87.3648 71.4826C92.9464 81.7332 81.727 92.9464 71.4826 87.3586L69.6575 86.3648C68.9425 85.9753 68.1494 85.7509 67.3364 85.7078C66.5233 85.6646 65.711 85.804 64.9588 86.1157C64.2066 86.4273 63.5338 86.9034 62.9895 87.5089C62.4452 88.1144 62.0433 88.834 61.8132 89.615L61.2257 91.6089C57.9317 102.797 42.0683 102.797 38.7743 91.6089L38.1868 89.615C37.9567 88.834 37.5548 88.1144 37.0105 87.5089C36.4663 86.9034 35.7934 86.4273 35.0412 86.1157C34.289 85.804 33.4767 85.6646 32.6636 85.7078C31.8506 85.7509 31.0575 85.9753 30.3425 86.3648L28.5174 87.3648C18.2668 92.9464 7.05982 81.727 12.6414 71.4826L13.6352 69.6575C14.0247 68.9425 14.2492 68.1494 14.2923 67.3364C14.3354 66.5233 14.196 65.711 13.8843 64.9588C13.5727 64.2066 13.0966 63.5338 12.4911 62.9895C11.8856 62.4452 11.166 62.0433 10.385 61.8132L8.39115 61.2257C-2.79705 57.9317 -2.79705 42.0683 8.39115 38.7743L10.385 38.1868C11.166 37.9567 11.8856 37.5548 12.4911 37.0105C13.0966 36.4663 13.5727 35.7934 13.8843 35.0412C14.196 34.289 14.3354 33.4767 14.2923 32.6636C14.2492 31.8506 14.0247 31.0575 13.6352 30.3425L12.6352 28.5174C7.05982 18.2668 18.273 7.05982 28.5174 12.6414L30.3425 13.6352C31.0575 14.0247 31.8506 14.2492 32.6636 14.2923C33.4767 14.3354 34.289 14.196 35.0412 13.8843C35.7934 13.5727 36.4663 13.0966 37.0105 12.4911C37.5548 11.8856 37.9567 11.166 38.1868 10.385L38.7743 8.39115V8.39115Z" fill="#F0F0F0"/>
<path fill-rule="evenodd" clip-rule="evenodd" d="M49.9999 35.9619C46.2767 35.9619 42.706 37.441 40.0733 40.0737C37.4406 42.7064 35.9616 46.2771 35.9616 50.0003C35.9616 53.7235 37.4406 57.2942 40.0733 59.9269C42.706 62.5597 46.2767 64.0387 49.9999 64.0387C53.7232 64.0387 57.2939 62.5597 59.9266 59.9269C62.5593 57.2942 64.0383 53.7235 64.0383 50.0003C64.0383 46.2771 62.5593 42.7064 59.9266 40.0737C57.2939 37.441 53.7232 35.9619 49.9999 35.9619V35.9619ZM29.7112 50.0003C29.7112 47.336 30.236 44.6977 31.2556 42.2361C32.2752 39.7746 33.7696 37.538 35.6536 35.654C37.5376 33.77 39.7742 32.2755 42.2358 31.2559C44.6973 30.2363 47.3356 29.7115 49.9999 29.7115C52.6643 29.7115 55.3026 30.2363 57.7641 31.2559C60.2257 32.2755 62.4623 33.77 64.3463 35.654C66.2303 37.538 67.7247 39.7746 68.7443 42.2361C69.7639 44.6977 70.2887 47.336 70.2887 50.0003C70.2887 55.3812 68.1512 60.5418 64.3463 64.3466C60.5414 68.1515 55.3809 70.2891 49.9999 70.2891C44.619 70.2891 39.4585 68.1515 35.6536 64.3466C31.8487 60.5418 29.7112 55.3812 29.7112 50.0003V50.0003Z" fill="#F0F0F0"/>
</svg>
