<svg width="80" height="80" viewBox="0 0 80 80" fill="none" xmlns="http://www.w3.org/2000/svg">
<path d="M40.0045 3.4378e-06C17.9019 -0.00917719 0 18.3704 0 41.0558C0 58.9947 11.1987 74.2437 26.7948 79.8439C28.8951 80.3856 28.5733 78.8524 28.5733 77.8058V70.6908C16.4451 72.1506 15.9535 63.9064 15.1402 62.5293C13.4957 59.6465 9.60787 58.9121 10.7697 57.535C13.5314 56.0753 16.3468 57.9022 19.609 62.8506C21.9685 66.4402 26.5713 65.8343 28.904 65.2375C29.4135 63.0801 30.5039 61.1522 32.0054 59.6557C19.4392 57.3422 14.2018 49.4652 14.2018 40.101C14.2018 35.5566 15.6586 31.3794 18.5186 28.0101C16.6953 22.4558 18.6884 17.7003 18.9565 16.9933C24.1493 16.516 29.5475 20.8125 29.9676 21.1522C32.917 20.3351 36.2864 19.9036 40.0581 19.9036C43.8476 19.9036 47.226 20.3535 50.2022 21.1797C51.2122 20.3902 56.2172 16.6996 61.0435 17.1494C61.3026 17.8563 63.251 22.5017 61.535 27.9826C64.4308 31.361 65.9055 35.5749 65.9055 40.1285C65.9055 49.5111 60.6323 57.3973 48.0304 59.6741C49.1098 60.7645 49.9668 62.0648 50.5515 63.4993C51.1362 64.9337 51.4367 66.4734 51.4356 68.0285V78.3567C51.5071 79.1829 51.4356 80 52.7762 80C68.6046 74.5192 80 59.16 80 41.065C80 18.3704 62.0892 3.4378e-06 40.0045 3.4378e-06Z" fill="black"/>
</svg>
