<svg width="80" height="80" viewBox="0 0 80 80" fill="none" xmlns="http://www.w3.org/2000/svg">
<path d="M16.443 1.12309C15.9586 -0.374363 13.99 -0.374363 13.4901 1.12309L4.66273 30.5337H25.2859C25.2703 30.5337 16.443 1.12309 16.443 1.12309ZM0.147505 45.3399C-0.258709 46.6859 0.194376 48.1834 1.25678 49.0415L39.9878 80L4.64711 30.5337L0.147505 45.3399ZM25.2703 30.5337L40.0034 80L54.7365 30.5337H25.2703ZM79.8593 45.3399L75.3597 30.5337L40.0034 80L78.7344 49.0415C79.8124 48.1834 80.2499 46.6859 79.8593 45.3399ZM66.5167 1.12309C66.0323 -0.374363 64.0638 -0.374363 63.5638 1.12309L54.7208 30.5337H75.344L66.5167 1.12309Z" fill="black"/>
</svg>
