<svg width="80" height="80" viewBox="0 0 80 80" fill="none" xmlns="http://www.w3.org/2000/svg">
<path d="M15.677 0C7.05588 0 0 7.05572 0 15.677V64.3256C0 72.9467 7.05572 80 15.677 80H64.3256C72.9468 80 80 72.9468 80 64.3256V15.677C80 7.05588 72.9468 0 64.3256 0H15.677ZM19.62 13.2016C23.7537 13.2016 26.2998 15.9153 26.3784 19.4824C26.3784 22.9707 23.7535 25.7606 19.5401 25.7606H19.4625C15.4075 25.7606 12.7866 22.9708 12.7866 19.4824C12.7866 15.9154 15.4868 13.2016 19.6199 13.2016H19.62ZM55.242 29.8737C63.1918 29.8737 69.1513 35.0697 69.1513 46.2357V67.0808H57.0697V47.6333C57.0697 42.7464 55.3212 39.4123 50.949 39.4123C47.6112 39.4123 45.6217 41.6595 44.7482 43.8304C44.4291 44.607 44.3507 45.6917 44.3507 46.7782V67.0808H32.2691C32.2691 67.0808 32.4277 34.1373 32.2691 30.7262H44.3531V35.8744C45.9586 33.3973 48.8305 29.8736 55.242 29.8736V29.8737ZM13.4993 30.7289H25.5808V67.0809H13.4993V30.7289Z" fill="black"/>
</svg>
